<svg xmlns="http://www.w3.org/2000/svg" fill="none" viewBox="0 0 565 408">
  <path d="M129.518 408C143.302 408 154.476 396.819 154.476 383.026C154.476 369.233 143.302 358.052 129.518 358.052C115.734 358.052 104.56 369.233 104.56 383.026C104.56 396.819 115.734 408 129.518 408Z" fill="#FFFFFF"/>
  <path d="M426.543 408C440.327 408 451.501 396.819 451.501 383.026C451.501 369.233 440.327 358.052 426.543 358.052C412.759 358.052 401.585 369.233 401.585 383.026C401.585 396.819 412.759 408 426.543 408Z" fill="#FFFFFF"/>
  <path d="M565 132.367V281.88C565 316.091 537.186 343.963 503.01 343.963H354.259C320.07 343.963 292.216 316.078 292.216 281.88V209.217C292.216 202.066 286.412 196.258 279.266 196.258C272.12 196.258 266.315 202.066 266.315 209.217V281.88C266.315 316.091 238.502 343.963 204.326 343.963H61.9897C27.8137 343.976 0 316.091 0 281.88V62.03C0 27.8318 27.8137 0 61.9897 0H193.699V213.164C193.699 226.695 182.715 237.726 169.153 237.726C155.592 237.726 144.607 226.681 144.607 213.164V7.61586H61.9897C54.8437 7.61586 49.0392 13.4241 49.0392 20.5748V323.348C49.0392 330.499 54.8437 336.307 61.9897 336.307H204.312C211.458 336.307 217.263 330.499 217.263 323.348V250.685C217.263 216.434 245.076 188.602 279.252 188.602C313.442 188.602 341.295 216.434 341.295 250.685V323.348C341.295 330.499 347.1 336.307 354.246 336.307H503.01C510.156 336.307 515.961 330.499 515.961 323.348V90.8985C515.961 83.801 510.156 77.9396 503.01 77.9396H413.924V223.784C413.924 230.935 419.729 236.743 426.875 236.743H464.371C469.193 236.743 473.696 238.138 477.481 240.584C473.696 242.963 469.193 244.372 464.371 244.372H426.875C392.685 244.372 364.885 216.54 364.885 182.342V70.3237H503.01C537.2 70.3237 565 98.1555 565 132.367Z" fill="rgba(255,255,255,0.88)"/>
</svg>
